<svg width="0" height="0" style="position: absolute;">
  <defs>
    <symbol id="icon-scan" viewBox="0 0 24 24">
      <path fill="currentColor" d="M3 5a2 2 0 0 1 2-2h5v2H5v5H3V5zM14 3h5a2 2 0 0 1 2 2v5h-2V5h-5V3zM3 14v5a2 2 0 0 0 2 2h5v-2H5v-5H3zM16 19h5v-5h2v5a2 2 0 0 1-2 2h-5v-2z"/>
    </symbol>
    <symbol id="icon-type" viewBox="0 0 24 24">
      <path fill="currentColor" d="M4 6h16v2H4V6zm0 5h16v2H4v-2zm0 5h16v2H4v-2z"/>
    </symbol>
    <symbol id="icon-show" viewBox="0 0 24 24">
      <path fill="currentColor" d="M19 3H5c-1.1 0-2 .9-2 2v14c0 1.1.9 2 2 2h14c1.1 0 2-.9 2-2V5c0-1.1-.9-2-2-2zm0 16H5V5h14v14z"/>
    </symbol>
  </defs>
</svg>