<?xml version="1.0" encoding="utf-8" ?><svg xmlns="http://www.w3.org/2000/svg" xmlns:xlink="http://www.w3.org/1999/xlink" width="851" height="851" viewBox="0 0 851 851"><path fill="#E9E8CB" transform="matrix(0.831055 0 0 0.831055 0.000244141 -3.05176e-05)" d="M788.505 293.181C798.337 294.128 836.107 318.684 846.886 324.785C861.145 324.014 875.482 321.863 889.745 320.707C901.411 319.762 913.385 316.942 924.461 322.074C948.021 332.989 949.667 356.54 951.046 379.273C951.205 381.886 951.838 388.542 953.254 391.236C963.385 400.728 982.395 405.761 989.226 418.213C991.879 423.049 984.165 434.197 981.522 438.612L967.762 461.497C965.23 465.701 961.793 470.846 959.868 475.227L965.472 541.183C966.325 551.343 968.348 567.466 967.551 577.222C966.27 592.896 951.292 610.628 936.372 614.988C932.437 616.138 924.506 616.633 920.109 617.025L894.754 619.283L794.117 628.736L435.688 660.977L336.467 669.639C316.8 671.288 288.206 673.193 269.366 676.165C264.366 682.314 259.173 689.37 254.303 695.702C240.833 712.95 239.29 717.854 219.808 702.825C212.836 697.447 201.057 687.454 193.7 683.313C192.173 683.504 190.313 683.768 188.79 683.863C167.773 685.173 149.538 689.284 131.849 674.581C114.728 660.351 115.623 643.247 113.867 623.121C99.7751 611.056 81.0813 599.73 68.2963 586.459C66.8218 584.929 66.0135 581.613 65.4611 579.475C67.8794 566.771 98.4508 536.073 105.937 521.35C104.49 502.14 102.118 482.839 100.556 463.991C98.8292 443.148 92.3084 420.258 110.347 404.946C114.098 401.762 119.64 397.021 124.562 395.956C137.85 393.08 151.949 392.236 165.507 390.87L257.539 382.217L607.296 346.914L705.423 336.883L734.147 333.872C739.799 333.273 747.494 332.644 752.883 331.405L753.643 331.226C760.232 325.03 769.979 307.802 776.399 300.266C780.411 295.557 782.443 293.845 788.505 293.181Z"/><path fill="#0E1519" transform="matrix(0.831055 0 0 0.831055 0.000244141 -3.05176e-05)" d="M788.617 305.383C793.483 306.827 803.464 313.565 808.204 316.423C818.933 322.892 829.501 329.872 840.405 336.066C844.246 335.369 851.628 334.314 855.768 334.055C874.148 332.932 894.081 328.516 912.336 330.767C919.51 331.652 933.328 341.881 935.264 348.922C939.339 363.739 940.16 381.413 941.763 396.826C951.038 404.295 970.998 412.342 978.407 420.838C980.941 423.743 950.995 466.876 949.616 472.31C948.431 476.981 949.998 488.041 950.351 492.269L954.513 542.752C955.992 560.108 960.399 578.155 949.154 592.831C938.635 606.558 922.412 606.446 906.824 607.944L874.993 611.026L759.037 621.658L419.68 652.368L313.786 661.546L285.659 663.877C281.121 664.215 266.613 664.867 262.861 666.503C260.543 667.515 253.536 677.815 251.394 680.757C248.276 685.153 240.332 697.655 235.946 699.7C230.472 699.415 204.487 677.784 197.338 673.038C178.862 672.622 154.871 678.739 139.715 666.974C124.901 655.475 126.631 636.123 124.597 618.647C116.824 611.932 81.6156 587.019 78.1199 581.438C78.0829 578.292 80.5637 574.995 82.3261 572.493C86.1315 567.091 106.677 536.612 111.186 536.199C113.687 535.97 115.446 538.139 117.123 539.7C116.96 532.366 115.871 522.56 115.253 515.123L110.953 465.06C109.994 453.473 107.631 438.8 109.965 428.023C111.945 418.878 123.04 407.789 131.681 405.598C142.057 402.966 160.4 401.556 171.506 400.374L268.969 390.665L651.034 353.344L728.675 345.853C734.809 345.277 754.287 344.398 759.173 342.736C765.991 340.416 779.853 310.169 788.163 305.622C788.313 305.54 788.466 305.463 788.617 305.383Z"/><path fill="#ADED0B" transform="matrix(0.831055 0 0 0.831055 0.000244141 -3.05176e-05)" d="M748.436 355.218C749.779 355.04 749.886 354.885 751.11 355.361C752.02 357.932 749.138 362.673 752.281 364.537C791.166 387.606 829.835 412.458 868.838 435.159L911.056 460.056C917.723 463.991 930.971 471.308 936.396 475.966C937.881 484.812 938.485 501.426 939.486 511.108C941.343 529.077 942.428 547.984 944.078 566.032C944.705 572.891 943.766 580.999 938.747 585.958C935.579 589.09 930.846 592.279 926.354 592.876C915.305 594.342 903.951 595.367 892.861 596.396L832.173 601.952L617.254 621.582L414.446 639.657L332.09 647.368C312.898 649.203 285.318 652.13 266.204 652.572C262.01 648.398 255.091 643.668 250.298 639.998C240.048 632.152 229.391 624.563 219.476 616.285C225.703 610.805 231.29 605.309 236.992 599.308C244.428 599.582 261.087 597.884 268.946 597.153C280.426 596.085 297.147 595.241 307.999 592.978C320.909 588.705 329.072 577.095 328.442 563.574C328.067 555.512 327.397 547.757 326.673 539.727L323.183 501.415L320.535 473.172C319.378 461.004 319.627 450.937 310.351 441.663C297.526 428.84 278.567 433.471 262.022 435.045L223.012 438.678L188.518 441.848C180.483 442.599 171.581 443.069 163.862 445.074C154.49 447.507 144.782 456.982 143.595 466.742C142.474 475.947 143.838 486.002 144.611 495.269L148.226 536.276C149.039 544.824 150.336 555.014 150.573 563.418C145.489 559.544 134.729 551.9 130.717 547.892C129.966 543.886 129.515 539.289 129.15 535.204C126.631 506.988 123.964 478.725 121.768 450.486C121.076 441.578 119.541 430.919 125.991 423.811C129.148 420.332 133.196 418.025 137.913 417.261C157.737 414.5 177.913 412.697 197.807 410.682L326.658 398.09L748.436 355.218Z"/><path fill="#0E1519" transform="matrix(0.831055 0 0 0.831055 0.000244141 -3.05176e-05)" d="M412.862 470.716C414.39 470.492 414.364 470.41 415.837 470.765C416.759 472.193 423.42 550.479 424.127 558.75C418.129 559.319 412.101 559.781 406.095 560.271C404.448 549.145 403.449 534.236 402.383 522.761C392.669 522.965 382.127 523.932 372.452 524.824C372.687 536.967 374.9 550.277 375.597 562.611C371.849 563.098 367.207 563.309 363.377 563.584L357.258 564.097C354.156 535.696 351.06 505.167 348.818 476.659L367.738 475.141L370.618 509.099C380.656 508.269 390.588 507.445 400.647 506.847C400.494 497.552 398.485 482.055 397.745 472.123C402.696 471.74 407.9 471.179 412.862 470.716Z"/><path fill="#0E1519" transform="matrix(0.831055 0 0 0.831055 0.000244141 -3.05176e-05)" d="M659.43 448.681C680.701 446.636 695.437 454.819 701.419 475.793C694.79 476.44 688.218 477.044 681.617 477.949C677.657 467.597 670.557 462.297 659.126 464.154C631.232 468.686 640.982 530.163 670.716 522.081C679.005 519.828 681.967 514.387 684.687 506.849C684.971 506.061 685.599 506.211 686.381 506.058C692.636 505.435 698.926 504.937 705.191 504.407C702.076 523.829 694.008 533.911 673.772 537.812C661.537 540.018 649.854 538.188 639.507 531.046C620.13 517.673 616.283 483.354 629.506 464.749C636.573 454.806 647.512 450.44 659.43 448.681Z"/><path fill="#0E1519" transform="matrix(0.831055 0 0 0.831055 0.000244141 -3.05176e-05)" d="M585.365 478.793C603.805 479.123 618.492 494.329 618.182 512.77C617.872 531.211 602.681 545.914 584.24 545.624C565.771 545.332 551.041 530.114 551.351 511.645C551.662 493.177 566.896 478.463 585.365 478.793Z"/><path fill="#ADED0B" transform="matrix(0.831055 0 0 0.831055 0.000244141 -3.05176e-05)" d="M582.81 493.563C590.822 493.048 596.027 496.938 598.059 504.685C600.808 515.164 600.24 527.929 587.841 530.988C579.857 531.452 574.755 527.281 572.378 519.804C568.931 508.961 570.823 497.203 582.81 493.563Z"/><path fill="#0E1519" transform="matrix(0.831055 0 0 0.831055 0.000244141 -3.05176e-05)" d="M718.229 443.2C719.772 442.969 723.278 442.839 724.981 442.721C726.241 453.668 727.841 465.671 728.668 476.575C733.069 469.701 737.85 466.542 746.008 465.615C756.518 464.421 764.895 467.871 768.1 478.66C770.486 486.692 770.516 494.988 771.288 503.293C772.053 511.516 773.173 519.745 773.603 528.013C768.575 528.892 761.2 529.336 756.139 529.585C754.619 518.357 753.768 506.361 752.322 494.887C751.585 488.565 749.354 480.412 741.465 480.584C726.691 480.905 730.791 499.033 731.808 508.579L734.065 531.879L715.711 533.531C713.599 504.254 708.828 473.468 706.919 444.101C710.475 443.952 714.637 443.499 718.229 443.2Z"/><path fill="#0E1519" transform="matrix(0.831055 0 0 0.831055 0.000244141 -3.05176e-05)" d="M457.335 490.173C480.959 487.652 489.168 505.231 490.8 525.247C477.498 526.758 459.326 528.04 446.713 530.238C448.976 538.995 454.053 545.74 464.722 543.071C469.153 541.963 471.168 539 473.192 535.135C478.731 534.545 483.692 534.149 489.255 533.823L490.179 533.98C490.69 536.845 487.133 543.659 485.327 545.72C467.327 566.27 430.943 557.395 428.585 528.285C427.701 517.376 428.929 510.007 435.395 501.467C441.017 494.04 448.715 491.221 457.335 490.173Z"/><path fill="#ADED0B" transform="matrix(0.831055 0 0 0.831055 0.000244141 -3.05176e-05)" d="M456.229 503.114C465.871 502.484 468.517 506.928 470.961 515.311L460.57 516.351C455.628 516.83 450.868 517.269 445.903 517.58C446.947 509.812 448.142 505.476 456.229 503.114Z"/><path fill="#0E1519" transform="matrix(0.831055 0 0 0.831055 0.000244141 -3.05176e-05)" d="M805.278 460.195C812.138 459.324 820.644 460.531 826.077 464.973C834.577 471.919 834.235 485.816 835.279 495.979L838.188 521.85C832.293 522.4 826.744 522.881 820.829 523.196L819.911 518.455C812.394 525.353 802.746 527.952 792.666 525.585C786.825 524.213 783.727 520.379 780.908 515.413C779.361 511.378 778.766 509.115 779 504.858C780.078 485.159 811.428 487.704 815.285 484.364C817.285 471.72 799.892 467.197 796.585 481.122L796.416 481.857C790.638 482.312 784.723 482.922 778.938 483.451C779.508 466.973 790.829 461.652 805.278 460.195Z"/><path fill="#ADED0B" transform="matrix(0.831055 0 0 0.831055 0.000244141 -3.05176e-05)" d="M816.132 496.732L816.537 496.759L817.235 497.674C818.77 508.993 811.079 516.504 800.22 511.834C798.621 510.491 796.742 508.314 796.636 506.225C796.238 498.407 811.392 497.197 816.132 496.732Z"/><path fill="#0E1519" transform="matrix(0.831055 0 0 0.831055 0.000244141 -3.05176e-05)" d="M856.893 441.706C858.427 441.454 858.375 441.385 859.866 441.725C861.901 444.217 861.872 453.381 862.098 457.161L873.891 455.895C874.423 459.809 874.696 464.356 875.029 468.336C871.392 468.62 867.321 469.22 863.663 469.68C864.431 477.787 864.995 485.998 865.898 494.094C867.2 505.77 869.005 506.97 879.922 504.601L880.533 517.658L873.611 519.19C843.911 527.791 847.308 490.224 845.395 470.932L838.557 471.59C838.467 467.694 838.032 463.094 837.758 459.156L844.629 458.084L843.379 443.103L856.893 441.706Z"/><path fill="#0E1519" transform="matrix(0.831055 0 0 0.831055 0.000244141 -3.05176e-05)" d="M507.287 461.207C508.789 460.998 509.344 460.792 510.78 461.317C511.737 465.001 513.231 484.845 513.672 489.544L519.407 550.296C514.367 550.667 509.112 551.209 504.062 551.664C502.495 551.936 502.381 551.923 500.783 551.849C498.437 549.06 493.2 473.2 491.935 462.596L507.287 461.207Z"/><path fill="#0E1519" transform="matrix(0.831055 0 0 0.831055 0.000244141 -3.05176e-05)" d="M533.423 458.794L540.063 458.374C542.266 488.246 545.914 518.024 548.335 547.882C543.987 548.122 539.477 548.551 535.123 548.903L529.19 549.156C525.559 519.913 524.205 489.362 520.997 459.922C524.953 459.436 529.415 459.146 533.423 458.794Z"/><path fill="#E9E8CB" transform="matrix(0.831055 0 0 0.831055 0.000244141 -3.05176e-05)" d="M277.084 446.707C283.029 445.75 292.484 446.306 297.555 449.639C308.634 456.92 307.921 471.855 308.802 483.7L311.306 515.514L314.117 546.514C315.237 559.315 318.583 576.213 301.542 580.725C279.727 586.367 254.256 583.752 232.576 588.038C230.078 588.532 201.963 617.55 198.146 618.142L197.759 616.487C197.519 612.213 197.352 595.609 194.935 591.738C194.142 590.467 187.073 590.866 184.881 590.909C181.209 588.263 167.427 577.006 164.763 573.823L158.273 504.375C157.564 496.299 155.556 480.514 156.307 472.858C157.955 456.074 180.997 455.793 193.465 454.622C198.764 454.124 204.887 453.529 210.579 453.013L277.084 446.707Z"/><path fill="#0E1519" transform="matrix(0.831055 0 0 0.831055 0.000244141 -3.05176e-05)" d="M267.73 470.204C269.753 469.949 272.495 470.052 274.591 470.063C275.398 474.368 275.798 481.724 276.149 486.244L278.351 514.63C279.572 529.856 282.072 549.074 282.534 563.694C278.104 564.578 262.51 566.694 258.882 564.995C257.018 561.376 255.616 535.852 254.818 529.383C243.779 529.609 230.511 531.011 219.149 531.621C220.098 543.731 221.94 557.139 222.295 569.068C217.328 570.024 210.745 570.502 205.589 570.952C203.065 571.062 200.428 570.977 197.894 570.943C196.233 562.527 194.433 541.167 193.664 532.019C192.219 514.809 189.442 494.503 188.639 477.513C194.02 476.368 208.178 475.507 213.574 475.548C215.233 482.838 215.826 501.511 217.073 510.409C228.294 509.342 241.828 508.953 252.62 507.405C252.105 495.77 250.446 483.614 249.914 471.741L267.73 470.204Z"/><path fill="#687473" transform="matrix(0.831055 0 0 0.831055 0.000244141 -3.05176e-05)" d="M789.959 317.269C791.706 317.883 801.557 324.126 803.669 325.422L832.939 343.115L910.034 388.882C928.502 399.861 949.636 412.166 967.123 424.192C962.57 430.821 945.731 463.622 942.488 465.873L941.389 465.655C927.434 456.022 903.87 442.806 889.012 433.991L798.537 379.645C790.688 374.851 768.133 362.934 762.742 357.912C763.027 355.129 786.689 321.501 789.959 317.269Z"/><path fill="#687473" transform="matrix(0.831055 0 0 0.831055 0.000244141 -3.05176e-05)" d="M113.337 547.812C127.36 557.77 142.244 570.614 156.6 580.903C161.924 584.718 181.249 598.306 184.617 601.483C186.703 607.497 187.508 625.381 188.425 632.979C192.481 633.407 194.707 633.186 198.814 632.896C203.308 630.008 206.904 626.891 211.027 623.512L239.131 643.979C245.43 648.542 251.886 652.931 257.81 657.965C250.673 666.011 245.896 673.613 239.729 682.3C238.039 684.515 236.406 686.348 234.569 688.424C212.669 673.461 190.526 654.872 168.791 639.204C147.833 624.097 126.392 609.586 106.47 593.251C102.32 589.849 93.9005 583.862 90.9166 579.796C90.9944 576.08 109.743 552.105 113.337 547.812Z"/><path fill="#ADED0B" transform="matrix(0.831055 0 0 0.831055 0.000244141 -3.05176e-05)" d="M897.704 342.25C930.469 338.996 926.213 365.503 928.565 387.768C920.495 383.146 912.197 377.963 904.206 373.142L858.391 345.716L897.704 342.25Z"/><path fill="#ADED0B" transform="matrix(0.831055 0 0 0.831055 0.000244141 -3.05176e-05)" d="M137.954 629.198C138.552 629.507 140.236 630.415 140.666 630.785C144.508 634.094 179.731 657.87 180.254 660.875C169.459 662.265 154.28 664.081 145.468 656.172C138.015 649.482 138.509 638.437 137.954 629.198Z"/></svg>