<?xml version="1.0" encoding="utf-8" ?><svg xmlns="http://www.w3.org/2000/svg" xmlns:xlink="http://www.w3.org/1999/xlink" width="1536" height="1024" viewBox="0 0 1536 1024"><path fill="#FE28A7" d="M1001.38 318.845C1012.61 319.246 1040.73 342.789 1048.59 351.639C1047.9 366.991 1048.87 384.252 1048.81 399.698C1048.8 404.606 1047.33 411.003 1052.54 413.742L1054.15 412.959C1062.33 402.627 1050.84 369.832 1059.72 363.382C1066.59 363.306 1084.51 381.746 1090.82 386.042C1095.7 389.812 1106.97 395.202 1107.22 402.388C1108.24 431.343 1107.41 461.11 1107.29 490.026L1106.96 660.311C1107.02 676.816 1108.12 695.385 1106.92 711.51C1106.5 717.144 1072.13 717.152 1067.85 713.373C1060.89 707.224 1067.05 679.667 1060.05 675.579C1051.44 680.423 1062.05 715.068 1048.65 715.071C1038.45 715.073 1021.31 717.583 1012.01 713.814C1008.66 712.456 1009.22 690.179 1008.31 684.744C1008.12 681.345 1008.44 677.982 1005.15 676.22C997.953 680.916 1005.92 710.416 998.743 713.917C995.444 715.526 958.959 719.899 957.57 710.207C956.512 702.83 958.093 680.888 954.224 675.83C947.358 676.617 951.106 708.907 946.17 712.799C940.072 717.608 911.701 717.096 906.113 711.84C902.975 703.953 906.452 536.557 906.571 516.921C907.013 478.032 906.789 439.137 905.901 400.256C909.961 393.116 943.071 363.709 949.887 367.203C956.308 378.007 949.002 412.588 956.517 417.387L958.09 417.025C964.987 410.78 958.615 371.758 961.984 359.705C967.003 341.745 986.598 328.227 1001.38 318.845ZM1010.67 591.031C1014.52 587.886 1025.96 579.39 1028.02 576.1C1028.89 566.39 1028.19 555.416 1027.95 545.631C1027.19 514.078 1026.57 482.637 1028.04 451.089C1028.34 444.662 1028.58 438.82 1028.16 432.384C1025.01 427.25 1007.39 411.785 1001.81 411.777C998.684 414.735 985.243 426.083 985.028 427.856C983.056 444.156 984.526 477.983 984.265 493.423C983.782 522.06 981.112 544.05 982.977 572.128C983.143 574.342 985.034 577.328 986.467 578.645C989.063 581.031 1005.42 592.41 1007.58 592.726C1009.18 592.147 1009.37 592.189 1010.67 591.031ZM1062.94 645.038C1067.76 645.487 1072.04 641.977 1072.55 637.164C1073.06 632.351 1069.6 628.024 1064.8 627.456C1061.64 627.082 1058.52 628.438 1056.64 631.006C1054.75 633.574 1054.39 636.956 1055.7 639.86C1057.01 642.765 1059.77 644.743 1062.94 645.038ZM947.648 646.124C952.106 645.691 955.436 641.829 955.209 637.354C954.982 632.88 951.279 629.375 946.8 629.395C943.713 629.409 940.884 631.119 939.435 633.846C937.987 636.573 938.155 639.875 939.871 642.441C941.588 645.007 944.576 646.422 947.648 646.124Z"/><path fill="#FE28A7" d="M693.856 322.912C707.316 321.154 721.567 323.962 730.748 334.614C733.893 347.08 727.182 387.636 737.716 391.431L739.372 390.432C745.52 379.96 741.795 349.989 742.375 336.698C742.492 334.009 743.478 332.529 745.439 330.733C751.931 324.787 762.189 323.039 770.69 323.4C777.94 323.707 787.677 324.886 792.849 330.635C802.51 341.374 791.317 387.029 801.37 396.589C802.419 397.587 803.336 397.349 804.653 397.353C813.285 390.618 804.256 341.023 810.511 331.941C815.929 324.074 856.162 316.213 856.96 334.214C857.5 346.38 857.756 358.855 857.919 370.877C858.291 400.876 858.317 430.878 857.998 460.878C851.474 469.104 822.89 489.904 822.141 497.455C821.897 499.915 823.214 501.518 824.81 503.223C828.417 507.075 833.394 510.041 837.681 513.093C847.904 520.369 863.859 530.674 870.981 540.985L871.465 541.7C871.604 551.89 870.217 562.745 870.553 572.748C871.681 606.354 869.757 640.105 870.728 673.69C870.693 685.531 871.882 698.867 870.443 710.581C869.442 718.736 845.135 716.79 839.118 715.316C826.366 712.194 835.51 680.984 828.054 678.086L826.539 678.869C819.415 689.255 838.272 721.006 801.696 715.671C798.641 715.226 788.273 715.973 783.876 715.605C769.283 714.383 780.116 679.041 770.583 678.13C762.894 683.149 768.974 707.188 762.076 714.579C757.02 717.282 736.634 716.04 729.969 716.007C715.937 715.939 728.914 679.609 719.164 677.646C713.309 682.362 717.906 705.324 712.971 711.932C707.808 718.846 697.586 714.952 690.363 717.141C687.56 717.991 682.199 716.429 679.929 714.609C678.184 713.374 677.557 710.571 677.611 708.448C678.277 682.123 678.604 655.662 677.563 629.314C676.975 614.424 677.64 599.994 678.159 585.137C678.432 577.324 677.672 568.899 677.695 560.966L677.301 433.049C677.291 420.323 678.79 406.811 678.574 394.581C678.219 374.395 678.848 352.42 678.055 332.428C678.297 332.044 678.544 331.662 678.796 331.284C683.029 324.924 686.765 324.328 693.856 322.912ZM786.522 583.067C800.962 577.003 804.725 574.207 802.058 558.098C798.316 553.585 773.742 531.994 766.716 530.242C766.231 530.121 763.299 530.322 762.635 530.368C761.509 531.61 759.928 533.469 759.822 535.259C758.769 552.947 759.291 571.014 759.199 588.74C759.187 591.141 759.633 594.057 760.699 596.01C765.702 595.49 780.785 585.767 786.522 583.067ZM783.313 456.116C790.094 451.78 806.633 444.407 797.466 433.725C790.482 425.587 774.199 413.946 763.377 413.309C760.853 414.972 759.135 416.575 758.954 419.76C758.353 430.314 758.04 459.67 761.208 468.371L762.246 469.284C768.259 466.352 777.272 459.974 783.313 456.116ZM834.87 645.66C843.477 639.128 838.808 629.233 827.614 630.124C821.156 637.922 823.918 647.025 834.87 645.66ZM718.484 646.31C721.118 645.649 722.788 645.559 724.429 642.769C725.461 641.022 725.73 638.929 725.174 636.978C724.324 633.905 721.571 631.601 718.485 630.999C707.507 632.729 705.995 644.642 718.484 646.31Z"/><path fill="#FE28A7" d="M541.793 316.352C548.13 317.853 572.792 342.306 575.748 347.809C580.262 356.211 568.265 443.205 584.155 439.16C590.559 429.302 578.594 372.139 590.204 366.709C590.841 366.815 591.342 366.887 591.917 367.206C596.782 369.901 622.004 393.888 623.063 398.633C626.058 412.042 625.47 436.361 626.991 451.421C633.197 512.868 639.705 574.514 643.35 636.166C644.011 647.356 650.8 706.729 649.297 711.337C648.705 713.152 647.576 714.444 645.82 715.209C641.912 716.912 618.334 716.388 614.542 714.643C604.944 710.227 611.381 688.316 608.186 679.144C607.624 677.531 607.311 675.794 605.738 675.033C600.135 682.846 607.377 711.936 598.159 714.535C591.74 716.346 572.296 716.337 565.991 713.868C562.132 712.357 561.52 683.581 561.141 678.242L556.514 620.234C555.985 613.207 555.332 598.221 553.423 592.142L553.163 591.339C550.139 589.406 541.399 588.624 537.742 588.801C525.235 589.404 529.327 609.014 528.511 618.04C525.798 648.05 521.709 678.014 520.017 708.118C519.701 713.743 516.758 715.119 511.195 715.44C499.864 715.033 483.998 720.446 483.114 703.915C482.803 698.109 481.757 679.528 477.852 676.141L476.316 676.568C471.865 681.81 474.521 703.921 471.435 711.312C469.171 716.732 463.044 714.966 458.604 715.172C451.203 715.515 443.535 717.393 436.524 714.173C431.405 709.43 438.98 656.88 439.872 647.012L456.964 458.715C458.348 442.087 457.955 425.186 459.092 408.346C459.872 396.803 478.466 368.191 488.644 369.1C501.616 370.257 495.018 426.661 503.027 434.166L503.993 433.857C514.195 422.963 500.413 361.559 509.691 347.303C516.677 336.57 531.487 324.126 541.793 316.352ZM542.728 533.869C545.766 533.409 550.262 533.288 552.188 530.507C554.06 527.803 547.503 451.006 545.794 444.694C545.116 442.192 543.752 440.594 541.472 439.362C541.277 439.257 541.068 439.177 540.866 439.084C539.926 440.813 538.447 443.766 538.392 445.647C538.022 458.297 530.189 523.501 532.108 531.391C534.773 534.365 538.913 534.014 542.728 533.869ZM607.074 645.308C611.145 643.258 612.832 638.328 610.871 634.212C608.91 630.095 604.02 628.301 599.863 630.172C597.092 631.419 595.212 634.069 594.951 637.097C594.689 640.125 596.086 643.058 598.602 644.762C601.119 646.467 604.36 646.676 607.074 645.308ZM484.198 646.15C488.554 644.771 490.966 640.119 489.583 635.763C488.2 631.407 483.546 628.999 479.193 630.388C474.846 631.774 472.444 636.42 473.825 640.769C475.206 645.118 479.848 647.526 484.198 646.15Z"/><path fill="#FE28A7" d="M349.952 324.375C356.059 323.053 370.994 323.444 375.054 329.233C380.347 336.78 371.954 376.291 382.85 377.178C389.184 371.812 382.877 342.579 390.068 333.411C397.559 323.86 415.105 322.185 425.508 327.259C431.065 329.969 429.863 346.98 429.751 352.845C429.451 368.619 432.354 385.758 430.111 401.325C429.364 405.868 418.879 421.491 416.01 426.503C397.278 459.195 378.117 491.639 358.532 523.827C348.939 539.653 338.796 555.495 329.457 571.437C327.895 574.103 327.588 575.292 328.161 577.936C329.751 579.61 332.431 580.732 334.722 580.765C357.54 581.097 380.569 579.869 403.39 580.823C407.494 580.994 414.121 583.987 414.017 588.732C413.381 617.574 413.065 646.402 411.721 675.227C411.146 686.867 412.798 701.399 410.257 712.478C404.857 717.945 376.826 718.919 377.259 706.622C377.494 699.961 380.415 681.041 374.292 676.907L372.982 677.703C364.753 692.338 381.446 721.21 347.103 715.8C343.603 715.249 332.809 717.083 330.5 715.987C319.969 710.989 327.09 686.536 321.223 677.179C317.967 677.724 316.985 691.396 316.969 694.608C316.836 721.376 308.024 714.484 287.517 716.041C272.853 716.029 265.524 716.985 266.177 698.23C266.47 689.797 265.649 681.438 263.102 673.399C259.344 685.479 260.581 695.437 258.098 706.444C257.385 709.604 255.874 712.354 252.978 713.977C247.866 716.842 233.746 717.556 228.233 715.95C226.02 715.305 224.391 713.919 223.437 711.819C221.408 707.349 222.823 671.967 222.958 664.758C223.157 654.194 223.543 643.578 223.338 633.016C223.147 623.225 221.414 612.106 223.218 602.479C226.405 585.47 258.09 537.148 268.38 519.631C277.963 503.32 287.008 486.704 296.498 470.343C301.736 461.313 310.648 448.988 313.947 439.408C314.653 437.359 314.82 436.914 313.874 434.99C310.134 432.378 304.764 432.668 300.625 432.984C291.487 433.679 228.997 439.14 225.38 431.808C220.837 422.601 222.479 383.218 222.839 370.299C222.797 357.51 221.576 342.953 223.729 330.384C224.74 324.482 246.257 324.108 251.287 326.617C269.127 335.516 265.314 358.682 270.246 374.616C270.463 375.315 270.926 375.243 271.638 375.526C273.348 374.565 275.178 370.023 275.252 368.371C275.801 355.957 273.559 345.138 277.198 333.02C286.363 324.782 298.269 322.582 309.534 328.451C322.656 335.287 318.937 355.104 322.764 367.958C324.311 369.435 323.646 368.987 326.047 369.366C332.4 365.421 329.17 351.847 331.515 344.33C334.12 335.975 335.726 333.059 340.822 325.94C343.691 325.139 346.973 324.794 349.952 324.375ZM381.818 645.757C386.186 643.747 389.03 640.094 386.821 635.178C384.649 630.344 381.032 629.656 376.322 628.623C367.7 633.606 368.709 646.636 381.818 645.757ZM265.148 646.167C269.522 645.283 272.356 641.024 271.481 636.646C270.607 632.269 266.354 629.426 261.976 630.291C257.585 631.16 254.733 635.428 255.61 639.818C256.487 644.209 260.76 647.053 265.148 646.167Z"/><path fill="#FE28A7" d="M1159.13 322.784C1174.06 322.977 1189.59 328.771 1192.29 345.052C1193.44 351.93 1191.45 368.528 1193.78 373.718C1198.63 376.201 1200.98 371.012 1200.91 366.977C1199.65 345.517 1197.68 324.763 1225.98 322.379C1237.67 321.393 1269.63 345.944 1279.21 352.432C1289.76 359.578 1307.25 367.443 1315.49 375.944C1316.35 390.778 1315.4 408.356 1315.4 423.355C1315.39 438.437 1315.53 453.485 1315.53 468.559C1308.69 476.132 1287.04 490.241 1285.77 496.27C1283.5 507.04 1307.42 516.663 1314.89 527.312L1315.4 528.042C1316.05 541.321 1314.88 554.696 1315 567.902C1315.41 612.967 1315.51 658.065 1315.67 703.134C1315.69 709.61 1314.97 714.988 1307.41 715.448C1278.45 724.429 1295.46 680.317 1286.12 675.174C1285.41 675.445 1284.59 675.763 1283.65 676.128C1279.81 686.473 1284.75 702.055 1279.22 711.336C1276.06 716.662 1259.7 717.093 1254.84 713.509C1252.26 708.43 1253.35 656.503 1253.37 647.221C1253.31 629.435 1252.85 611.547 1252.61 593.619C1252.53 587.538 1253.4 557.733 1249.13 554.856C1243.49 551.052 1226.31 533.469 1221.24 534.526C1219.54 538.674 1219.7 545.09 1219.67 549.601C1219.45 584.204 1219.46 618.777 1220.04 653.378C1220.18 661.605 1219.7 670.962 1219.63 679.24C1219.56 687.459 1222.22 706.417 1219.19 713.531C1214.6 716.726 1191.35 717.295 1186.85 713.97C1181.13 709.737 1185.73 679.824 1179.79 675.836C1175.89 679.864 1176.5 702.183 1173.08 713.065C1166.62 717.327 1158.57 714.62 1152.08 715.738C1135.11 718.663 1139.49 697.171 1139.71 683.557C1139.9 671.392 1139.99 659.226 1139.99 647.06L1139.51 506.781C1139.45 498.352 1143.21 497.58 1140.06 486.517C1139.26 477.333 1140.28 467.611 1140.43 458.227C1141 423.28 1136.86 388.532 1140.35 353.585C1142.06 336.405 1136.94 326.28 1159.13 322.784ZM1239.71 465.489C1246.65 460.743 1252.27 459.006 1252.11 449.539C1251.94 439.47 1252.29 428.016 1250.25 418.169C1242.47 412.289 1232.92 403.246 1223.71 403.57C1221.39 405.389 1219.9 406.281 1219.81 409.791C1219.58 419.586 1219.58 466.988 1221.81 473.108C1227.45 475.396 1235.28 469.027 1239.71 465.489ZM1289.97 644.099C1297.79 637.867 1295.41 627.024 1285.64 627.173C1285.29 627.181 1284.94 627.195 1284.59 627.216C1274.3 633.629 1277.93 643.533 1289.97 644.099ZM1181.45 645.061C1190.95 639.264 1187.96 628.761 1177.79 627.698C1167.68 633.457 1172.32 645.93 1181.45 645.061Z"/><path fill="#FE28A7" d="M1329.74 621.96C1335.56 621.758 1341.52 620.715 1346.23 623.937C1348.68 628.563 1347.6 645.564 1347.65 651.642C1347.68 655.664 1346.74 657.926 1343.83 660.414C1337.78 661.355 1324.21 662.677 1325.03 653.252C1325.82 644.236 1320.9 627.492 1329.74 621.96Z"/><path fill="#FE28A7" d="M656.393 626.754C671.869 627.181 666.858 650.393 668.807 660.899C669.088 662.415 666.006 663.746 664.727 664.511C650.902 667.457 653.215 650.784 652.644 641.789C652.271 635.91 652.727 631.482 656.393 626.754Z"/><path fill="#FE28A7" d="M885.697 626.96C895.568 626.528 895.104 637.149 895.202 644.538C895.305 652.256 896.004 659.095 888.649 662.726C876.043 665.356 880.479 644.327 880.471 637.246C880.467 633.055 882.689 629.771 885.697 626.96Z"/><path fill="#FE28A7" d="M1234.49 622.609C1235.17 622.574 1236.57 622.598 1237.24 622.624C1247.75 623.026 1242.83 648.337 1243.04 655.443C1243.12 657.815 1240.8 659.297 1239.25 660.298C1224.7 659.492 1231.57 640.441 1230.05 629.053C1231.4 626.893 1233.01 624.702 1234.49 622.609Z"/><path fill="#FE28A7" d="M1125.28 624.763C1135.23 627.873 1131.42 648.218 1130.19 656.24C1129.83 658.602 1127.66 660.114 1125.59 661.022C1115.11 657.571 1117.49 640.219 1118.97 631.716C1119.65 627.812 1122.11 626.528 1125.28 624.763Z"/><path fill="#FE28A7" d="M540.816 634.402C551.653 634.915 550.168 654.363 550.023 662.138C549.997 663.558 547.872 664.285 546.736 664.877C544.386 664.772 539.96 664.678 538.443 662.815C532.041 654.95 534.712 641.423 540.816 634.402Z"/><path fill="#FE28A7" d="M425.641 628.499C426.915 628.504 429.871 628.537 430.355 629.501C434.329 637.428 432.646 659.728 426.78 665.325C416.093 661.081 418.974 634.662 425.641 628.499Z"/></svg>